<?xml version="1.0" encoding="UTF-8"?>
<svg width="176px" height="134px" viewBox="0 0 176 134" version="1.1" xmlns="http://www.w3.org/2000/svg" xmlns:xlink="http://www.w3.org/1999/xlink">
    <!-- Generator: Sketch 57.1 (83088) - https://sketch.com -->
    <title>iconCredit</title>
    <desc>Created with Sketch.</desc>
    <g id="Page-1" stroke="none" stroke-width="1" fill="none" fill-rule="evenodd">
        <g id="Artboard" transform="translate(-11801.000000, -445.000000)" fill="#FE5722">
            <path d="M11965.7442,445 C11971.9606,445 11977,450.0394 11977,456.255814 L11977,567.744186 C11977,573.9606 11971.9606,579 11965.7442,579 L11812.2558,579 C11806.0394,579 11801,573.9606 11801,567.744186 L11801,456.255814 C11801,450.0394 11806.0394,445 11812.2558,445 L11965.7442,445 Z M11968.814,500.236641 L11809.186,500.236641 L11809.186,565.351191 C11809.1969,568.365243 11811.6434,570.80594 11814.6646,570.816794 L11814.6646,570.816794 L11963.296,570.816794 C11964.7542,570.821947 11966.1548,570.249048 11967.1896,569.22406 C11968.2244,568.199072 11968.8087,566.805957 11968.814,565.351191 L11968.814,565.351191 L11968.814,500.236641 Z M11857.883,530.530643 C11860.0556,530.530643 11861.8169,532.291276 11861.8169,534.463128 C11861.8169,536.63498 11860.0556,538.395613 11857.883,538.395613 L11857.883,538.395613 L11825.3107,538.395613 L11825.1083,538.390496 C11823.0298,538.285172 11821.3769,536.567109 11821.3769,534.463128 C11821.3769,532.291276 11823.1381,530.530643 11825.3107,530.530643 L11825.3107,530.530643 Z M11890.4553,512.83446 C11892.6279,512.83446 11894.3891,514.595093 11894.3891,516.766945 C11894.3891,518.938796 11892.6279,520.69943 11890.4553,520.69943 L11890.4553,520.69943 L11825.3107,520.69943 L11825.1083,520.694313 C11823.0298,520.588989 11821.3769,518.870926 11821.3769,516.766945 C11821.3769,514.595093 11823.1381,512.83446 11825.3107,512.83446 L11825.3107,512.83446 Z M11963.3354,453.183206 L11814.704,453.183206 C11813.2458,453.177918 11811.8452,453.761803 11810.8104,454.806447 C11809.7756,455.851091 11809.1913,457.27092 11809.186,458.753583 L11809.186,458.753583 L11809.186,473.641221 L11968.814,473.641221 L11968.814,458.753583 C11968.8031,455.681733 11966.3566,453.194233 11963.3354,453.183206 L11963.3354,453.183206 Z" id="iconCredit"></path>
        </g>
    </g>
</svg>