<?xml version="1.0" encoding="UTF-8"?>
<svg width="160px" height="155px" viewBox="0 0 160 155" version="1.1" xmlns="http://www.w3.org/2000/svg" xmlns:xlink="http://www.w3.org/1999/xlink">
    <!-- Generator: Sketch 57.1 (83088) - https://sketch.com -->
    <title>iconInsurance</title>
    <desc>Created with Sketch.</desc>
    <g id="Page-1" stroke="none" stroke-width="1" fill="none" fill-rule="evenodd">
        <g id="Artboard" transform="translate(-10686.000000, -435.000000)" fill="#FFC31F">
            <path d="M10714.4909,563.723176 C10722.7921,563.723176 10729.7833,569.709177 10731.1039,577.691989 L10731.1556,578.025751 L10732.3339,586.008583 C10732.6607,588.107012 10731.0845,589.892101 10728.9907,589.995291 L10728.799,590 L10689.5779,590 C10687.454,590 10685.8058,588.27663 10686.0185,586.198448 L10686.043,586.008583 L10687.2213,578.025751 C10688.3835,569.988242 10695.2769,563.892138 10703.5409,563.726629 L10703.886,563.723176 L10714.4909,563.723176 Z M10771.3866,563.723176 C10779.6878,563.723176 10786.679,569.709177 10787.9996,577.691989 L10788.0513,578.025751 L10789.2296,586.008583 C10789.5564,588.107012 10787.9802,589.892101 10785.8864,589.995291 L10785.6947,590 L10746.4737,590 C10744.3497,590 10742.7015,588.27663 10742.9142,586.198448 L10742.9387,586.008583 L10744.117,578.025751 C10745.2792,569.988242 10752.1726,563.892138 10760.4366,563.726629 L10760.7818,563.723176 L10771.3866,563.723176 Z M10828.114,563.723176 C10836.4152,563.723176 10843.4064,569.709177 10844.727,577.691989 L10844.7787,578.025751 L10845.957,586.008583 C10846.2838,588.107012 10844.7076,589.892101 10842.6138,589.995291 L10842.4221,590 L10803.201,590 C10801.0771,590 10799.4289,588.27663 10799.6416,586.198448 L10799.6661,586.008583 L10800.8444,578.025751 C10802.0066,569.988242 10808.9,563.892138 10817.164,563.726629 L10817.5091,563.723176 L10828.114,563.723176 Z M10709.2726,529.29721 C10717.7326,529.29721 10724.5907,536.072987 10724.5907,544.431331 C10724.5907,552.789674 10717.7326,559.565451 10709.2726,559.565451 C10700.8127,559.565451 10693.9545,552.789674 10693.9545,544.431331 C10693.9545,536.072987 10700.8127,529.29721 10709.2726,529.29721 Z M10766,529.29721 C10774.4599,529.29721 10781.3181,536.072987 10781.3181,544.431331 C10781.3181,552.789674 10774.4599,559.565451 10766,559.565451 C10757.5401,559.565451 10750.6819,552.789674 10750.6819,544.431331 C10750.6819,536.072987 10757.5401,529.29721 10766,529.29721 Z M10822.7274,529.29721 C10831.1873,529.29721 10838.0455,536.072987 10838.0455,544.431331 C10838.0455,552.789674 10831.1873,559.565451 10822.7274,559.565451 C10814.2674,559.565451 10807.4093,552.789674 10807.4093,544.431331 C10807.4093,536.072987 10814.2674,529.29721 10822.7274,529.29721 Z M10766,435 C10769.5349,435 10772.3966,437.827253 10772.3966,441.319742 L10772.3966,441.319742 L10772.3966,444.978541 C10809.9343,447.306867 10839.0554,470.590129 10840.9071,501.190987 C10841.0754,502.022532 10841.0754,502.521459 10841.0754,502.854077 C10841.0754,504.517168 10840.0654,506.013949 10838.3821,506.512876 C10836.8671,507.011802 10835.0155,506.346566 10834.0055,505.016094 C10830.6389,500.359442 10825.4207,497.698498 10820.0341,497.698498 C10813.9742,497.698498 10808.4193,500.858369 10805.3893,506.013949 C10804.716,507.178112 10803.5377,508.009657 10801.6861,507.843347 C10800.3394,507.843347 10798.9928,507.178112 10798.3195,506.013949 C10795.1212,500.858369 10789.5663,497.698498 10783.6747,497.698498 C10779.2981,497.698498 10775.0898,499.361588 10772.0599,502.35515 L10772.0599,502.35515 L10772.0599,519.651288 C10772.0599,523.143777 10759.4351,523.143777 10759.4351,519.651288 L10759.4351,519.651288 L10759.4351,502.35515 C10756.4052,499.527897 10752.1969,497.698498 10747.8203,497.698498 C10741.7604,497.698498 10736.2055,500.858369 10733.1755,506.013949 C10732.5022,507.344421 10731.1556,508.009657 10729.8089,508.009657 C10728.4623,508.009657 10727.1157,507.178112 10726.4423,506.013949 C10723.5807,500.858369 10717.8575,497.698498 10711.9659,497.698498 C10706.411,497.698498 10701.3611,500.193133 10697.9945,504.849785 C10696.9845,506.346566 10695.3012,506.845494 10693.6179,506.346566 C10692.1029,505.84764 10690.9246,504.350859 10690.9246,502.687768 L10690.9246,502.687768 L10690.9246,501.523605 C10692.9446,470.590129 10721.8974,447.306867 10759.6034,444.978541 L10759.6034,444.978541 L10759.6034,441.319742 C10759.6034,437.827253 10762.4651,435 10766,435 Z" id="iconInsurance"></path>
        </g>
    </g>
</svg>