<?xml version="1.0" encoding="UTF-8"?>
<svg width="160px" height="151px" viewBox="0 0 160 151" version="1.1" xmlns="http://www.w3.org/2000/svg" xmlns:xlink="http://www.w3.org/1999/xlink">
    <!-- Generator: Sketch 57.1 (83088) - https://sketch.com -->
    <title>iconRetirement</title>
    <desc>Created with Sketch.</desc>
    <g id="Page-1" stroke="none" stroke-width="1" fill="none" fill-rule="evenodd">
        <g id="Artboard" transform="translate(-12169.000000, -437.000000)" fill="#0079FF">
            <path d="M12169.6095,468.447934 C12171.3918,464.454545 12174.7019,461.459504 12178.7757,460.710744 C12181.8312,459.961983 12185.1412,460.461157 12188.4512,461.459504 C12191.252,462.457851 12193.7982,463.955372 12195.8351,465.702479 C12200.4182,469.695868 12203.219,474.93719 12205.7652,479.679339 C12206.2744,480.428099 12206.529,481.17686 12207.0383,481.92562 C12208.566,484.920661 12210.0937,487.915703 12211.6214,490.661157 C12216.4591,500.145455 12221.0422,508.880992 12228.1715,515.869421 C12237.5924,524.854545 12248.7955,529.596694 12259.9987,529.596694 C12270.9472,529.347108 12282.405,524.854545 12291.062,517.366942 C12296.1544,512.87438 12302.2652,507.882645 12310.6675,507.633058 C12315.5053,507.383471 12320.0884,509.130579 12323.653,512.375207 C12326.9631,515.370248 12328.7454,519.613223 12329,524.355372 C12329,527.350413 12327.7269,530.095868 12325.4354,531.842975 C12323.3984,533.590083 12320.5976,534.338843 12318.0515,533.839669 C12314.4868,533.090909 12312.1953,529.846281 12312.7045,526.352066 C12312.9591,524.854545 12313.723,523.606612 12314.996,522.608264 C12314.7414,522.358677 12314.7414,522.109091 12314.4868,522.109091 C12313.4683,520.61157 12312.1953,520.112397 12310.9222,520.112397 C12307.1029,520.361984 12303.2836,523.357025 12299.719,526.601653 C12299.2098,527.100827 12298.7005,527.350413 12298.1913,527.849587 C12294.6267,530.844628 12292.5897,535.087603 12292.5897,539.580165 C12292.5897,542.575207 12293.099,545.819835 12293.8628,548.565289 C12295.3905,553.057851 12298.4459,565.53719 12301.7559,567.783471 C12305.066,566.285951 12308.6306,564.538843 12311.9406,562.542149 C12314.4868,561.044628 12317.7968,562.042975 12319.0699,564.538843 C12320.5976,567.034711 12319.5792,570.279339 12317.033,571.527273 C12312.4499,574.02314 12307.8668,576.269421 12303.2836,578.266116 C12303.2836,578.266116 12303.029,578.266116 12303.029,578.266116 C12299.2098,579.763636 12295.6451,581.261157 12291.8259,582.509091 C12283.4235,585.254545 12274.7665,587.001653 12266.1095,587.750413 C12263.3087,588 12260.2533,588 12257.4525,588 C12251.5963,588 12245.4855,587.500827 12239.6293,586.502479 C12230.7177,585.004959 12221.5515,582.509091 12212.6399,579.014876 C12209.8391,578.016529 12208.566,575.021488 12209.5845,572.276033 C12210.6029,569.530579 12213.6583,568.282645 12216.4591,569.280992 C12220.533,570.778512 12224.3523,572.276033 12228.4261,573.27438 C12231.2269,570.528925 12232.7546,557.550413 12233.2639,552.808264 C12234.0277,547.317355 12233.2639,541.57686 12230.7177,536.834711 C12227.9169,531.593388 12222.0607,528.847934 12217.9868,524.604959 C12209.3298,516.368595 12203.9829,505.885951 12198.8905,496.152066 C12197.3628,493.406612 12195.8351,490.41157 12194.3074,487.666116 C12193.7982,486.917355 12193.5436,486.168595 12193.0343,485.419835 C12190.9974,481.426446 12188.7058,477.682645 12185.905,475.186777 C12184.1227,473.689256 12181.8312,472.940496 12180.8127,472.940496 C12180.8127,472.940496 12180.8127,472.940496 12180.8127,473.190083 C12179.5396,476.434711 12175.4657,478.181818 12172.1557,476.684297 C12169.6095,475.436364 12168.0818,471.692562 12169.6095,468.447934 Z M12285.9697,573.27438 C12287.4974,571.77686 12288.2612,569.780165 12288.0066,567.034711 C12286.9881,556.552066 12281.8958,548.565289 12270.6926,547.067769 C12262.7995,546.069421 12248.0317,545.320661 12244.467,554.555372 C12243.1939,557.8 12242.6847,562.042975 12241.9209,565.53719 C12240.6478,572.52562 12243.1939,577.267769 12250.8325,577.766942 C12261.2718,578.515703 12272.4749,578.016529 12282.6596,575.021488 C12284.1873,574.522314 12285.2058,574.02314 12285.9697,573.27438 Z M12270.0831,513.373554 C12268.81,513.62314 12267.5369,513.872727 12265.7546,513.62314 L12263.7177,514.122314 L12263.7177,519.363636 L12256.0791,519.363636 L12256.0791,514.122314 L12255.0607,513.872727 C12240.5475,510.628099 12234.182,503.639669 12235.2005,492.408264 L12248.6952,492.408264 L12248.9499,493.905785 C12248.9499,494.404959 12248.9499,494.654545 12248.9499,494.904132 C12249.7137,500.145455 12253.0237,503.390083 12258.1161,503.639669 C12259.1346,503.639669 12260.153,503.639669 12261.1715,503.639669 C12265.5,503.390083 12268.3008,501.642975 12269.3192,498.14876 C12270.847,493.905785 12269.5739,489.66281 12266.2638,487.666116 C12264.7361,486.667769 12262.9538,485.669421 12260.9169,484.920661 L12260.4076,484.671075 C12259.6438,484.421488 12258.8799,484.171901 12258.1161,483.672727 C12256.843,483.173554 12255.3153,482.424793 12254.0422,481.92562 C12250.9868,480.677686 12247.9314,479.429752 12245.1306,477.433058 C12240.0382,473.689256 12237.2375,467.699173 12237.7467,461.209917 C12238.2559,454.471074 12242.0752,448.980165 12247.9314,445.985124 C12249.7137,444.986777 12251.7506,444.487603 12254.0422,443.738843 C12254.8061,443.489256 12255.5699,443.239669 12256.3338,442.990083 L12257.3522,442.740496 L12257.3522,437 L12264.9908,437 L12264.9908,443.489256 L12266.0092,443.738843 C12273.3931,445.236364 12277.9762,448.231405 12281.0316,453.22314 C12283.0686,456.467769 12284.0871,460.960331 12283.5778,464.704132 L12270.0831,464.704132 C12270.0831,464.454545 12269.8285,463.955372 12269.8285,463.456198 L12269.8285,463.206612 C12269.5739,461.958678 12269.5739,460.710744 12269.0646,459.712397 C12267.7915,455.968595 12264.7361,453.971901 12260.4076,453.971901 C12255.8245,453.971901 12253.533,455.469422 12252.2599,458.963636 C12250.7322,463.206612 12252.0053,467.449587 12255.0607,469.446281 C12257.3522,470.694215 12259.3892,471.692562 12261.6807,472.690909 C12262.6992,473.190083 12263.463,473.439669 12264.2269,473.938843 C12265.5,474.438016 12266.7731,475.186777 12268.0462,475.685951 C12270.5923,476.933884 12273.3931,477.932231 12275.6847,479.429752 C12282.3047,483.42314 12285.1055,489.912397 12283.8324,498.647934 C12282.814,505.885951 12278.2309,510.877686 12270.0831,513.373554 Z" id="iconRetirement"></path>
        </g>
    </g>
</svg>