<?xml version="1.0" encoding="UTF-8"?>
<svg width="154px" height="164px" viewBox="0 0 154 164" version="1.1" xmlns="http://www.w3.org/2000/svg" xmlns:xlink="http://www.w3.org/1999/xlink">
    <!-- Generator: Sketch 57.1 (83088) - https://sketch.com -->
    <title>iconSavings</title>
    <desc>Created with Sketch.</desc>
    <g id="Page-1" stroke="none" stroke-width="1" fill="none" fill-rule="evenodd">
        <g id="Artboard" transform="translate(-11038.000000, -430.000000)" fill="#9D30FE" fill-rule="nonzero">
            <path d="M11135.1534,543.464946 C11103.7919,543.422454 11078.3825,518.043974 11078.3527,486.733299 C11078.3527,463.785387 11092.1999,443.09751 11113.4364,434.317887 C11134.6728,425.538263 11159.1156,430.396221 11175.3653,446.626152 C11191.615,462.856084 11196.4709,487.261167 11187.6683,508.459586 C11178.8658,529.658007 11158.1386,543.474295 11135.1534,543.464946 Z M11139.9865,505.826272 L11128.8302,505.826272 C11124.353,505.826272 11120.7235,502.202684 11120.7235,497.732763 C11120.7235,496.136362 11119.4273,494.842224 11117.8283,494.842224 C11116.2293,494.842224 11114.9331,496.136362 11114.9331,497.732763 C11114.9331,505.395485 11121.155,511.60735 11128.8302,511.60735 L11131.5093,511.60735 L11131.5093,521.670279 C11131.5093,523.266679 11132.8055,524.560817 11134.4045,524.560817 C11136.0035,524.560817 11137.2997,523.266679 11137.2997,521.670279 L11137.2997,511.60735 L11140.002,511.60735 C11147.6771,511.60735 11153.8991,505.395485 11153.8991,497.732763 C11153.8991,490.07004 11147.6771,483.858176 11140.002,483.858176 L11128.8457,483.858176 C11124.3685,483.858176 11120.739,480.234589 11120.739,475.764667 C11120.739,471.294746 11124.3685,467.671159 11128.8457,467.671159 L11140.002,467.671159 C11142.152,467.671159 11144.214,468.523865 11145.7342,470.041692 C11147.2545,471.55952 11148.1086,473.618136 11148.1086,475.764667 C11148.1086,477.361068 11149.4049,478.655206 11151.0039,478.655206 C11152.6029,478.655206 11153.8991,477.361068 11153.8991,475.764667 C11153.8991,468.101945 11147.6771,461.890081 11140.002,461.890081 L11137.2997,461.890081 L11137.2997,451.800173 C11137.2997,450.203773 11136.0035,448.909634 11134.4045,448.909634 C11132.8055,448.909634 11131.5093,450.203773 11131.5093,451.800173 L11131.5093,461.863102 L11128.8302,461.863102 C11121.155,461.863102 11114.9331,468.074966 11114.9331,475.737689 C11114.9331,483.400411 11121.155,489.612276 11128.8302,489.612276 L11139.9865,489.612276 C11144.4637,489.612276 11148.0932,493.235863 11148.0932,497.705785 C11148.0932,502.175706 11144.4637,505.799293 11139.9865,505.799293 L11139.9865,505.826272 Z M11184.4334,562.855435 C11185.8617,562.003689 11189.5444,558.839513 11187.8189,555.663774 C11186.0933,552.488036 11181.9126,553.28197 11179.5964,554.05278 C11173.528,556.033763 11154.6086,561.784009 11154.4194,561.84182 L11134.616,566.466681 C11134.6703,569.679901 11133.4223,572.778793 11131.1553,575.060258 C11128.8883,577.341723 11125.7944,578.612339 11122.5757,578.583821 C11120.9025,578.585442 11119.2477,578.234805 11117.7194,577.554788 L11097.3292,568.455372 C11096.3598,568.050268 11095.6863,567.152499 11095.5697,566.109754 C11095.4531,565.067009 11095.9116,564.043046 11096.7676,563.434426 C11097.6237,562.825806 11098.7429,562.728111 11099.6917,563.179175 L11120.0858,572.278591 C11122.9085,573.518695 11126.2154,572.524963 11127.8836,569.935328 C11128.8121,568.482575 11129.0961,566.710697 11128.6682,565.041214 C11128.2402,563.371732 11127.1386,561.953882 11125.6253,561.124966 C11125.2084,560.874452 11094.9706,542.494479 11085.397,538.228044 C11082.1686,537.02272 11078.6215,536.972325 11075.3601,538.085444 L11038,553.447694 L11050.8549,584.596141 L11067.4542,577.782178 C11068.1363,577.501628 11068.9,577.491976 11069.589,577.755199 L11110.5083,593.344839 C11112.6909,594.17011 11115.0918,594.21911 11117.3063,593.483585 L11118.4644,593.09818 C11132.8519,588.427406 11146.8361,582.598946 11160.2794,575.670157 C11162.5415,574.502379 11164.6763,573.419391 11166.7184,572.382651 C11173.1458,569.114415 11178.7008,566.289395 11184.4334,562.855435 Z" id="iconSavings"></path>
        </g>
    </g>
</svg>