<?xml version="1.0" encoding="UTF-8"?>
<svg width="224px" height="147px" viewBox="0 0 224 147" version="1.1" xmlns="http://www.w3.org/2000/svg" xmlns:xlink="http://www.w3.org/1999/xlink">
    <!-- Generator: Sketch 57.1 (83088) - https://sketch.com -->
    <title>iconStudents</title>
    <desc>Created with Sketch.</desc>
    <g id="Page-1" stroke="none" stroke-width="1" fill="none" fill-rule="evenodd">
        <g id="Artboard" transform="translate(-11385.000000, -439.000000)" fill="#00D17B">
            <path d="M11599.5033,487.363285 L11599.5033,557.194588 L11608.9008,580.762652 C11609.1827,581.600628 11608.9233,582.706756 11607.3432,583.566184 L11607.1388,583.67229 L11605.9641,583.67229 C11604.8481,583.67229 11603.9972,583.409695 11603.6631,582.385575 L11603.6147,582.217471 L11598.3286,569.706029 L11598.3286,583.963254 L11598.3232,584.120103 C11598.2479,585.204659 11597.3942,586 11596.2729,586 C11595.1516,586 11594.2979,585.204659 11594.2226,584.120103 L11594.2172,583.963254 L11594.2172,569.706029 L11589.5184,583.381326 C11589.2431,584.199662 11588.4516,584.506538 11587.6278,584.5417 L11587.4627,584.545181 L11586.5817,584.545181 C11585.4658,583.99235 11585.1449,582.914329 11585.3674,582.059514 L11585.407,581.926507 L11595.3919,557.194588 L11595.0982,489.400032 L11595.0982,489.109068 L11599.5033,487.363285 Z M11421.709,512.11137 C11437.2736,512.11137 11450.1952,521.42221 11455.7749,535.38847 C11457.8306,539.461963 11458.7117,544.117383 11459.0053,548.48184 C11459.0053,555.755934 11456.9496,562.739064 11452.8382,568.267375 C11446.3774,578.160143 11434.6306,584.85231 11421.709,584.85231 C11401.4456,584.85231 11385,568.558339 11385,548.48184 C11385,528.40534 11401.4456,512.11137 11421.709,512.11137 Z M11422.1027,521.551527 C11420.9908,521.551527 11420.0894,522.459905 11420.0894,523.580447 L11420.0894,530.643793 L11418.2264,530.643793 C11412.8891,530.643793 11408.5624,535.004008 11408.5624,540.382607 C11408.5624,545.761206 11412.8891,550.121422 11418.2264,550.121422 L11425.9845,550.121422 C11429.0979,550.121422 11431.6218,552.664881 11431.6218,555.802397 C11431.6218,558.939913 11429.0979,561.483372 11425.9845,561.483372 L11425.9845,561.502309 L11418.2264,561.502309 C11415.113,561.502309 11412.5891,558.958849 11412.5891,555.821333 C11412.5891,554.700792 11411.6877,553.792414 11410.5757,553.792414 C11409.4638,553.792414 11408.5624,554.700792 11408.5624,555.821333 C11408.5624,561.199932 11412.8891,565.560148 11418.2264,565.560148 L11420.0894,565.560148 L11420.0894,572.623494 C11420.0894,573.744035 11420.9908,574.652413 11422.1027,574.652413 C11423.2147,574.652413 11424.1161,573.744035 11424.1161,572.623494 L11424.1161,565.560148 L11425.9952,565.560148 C11431.3325,565.560148 11435.6592,561.199932 11435.6592,555.821333 C11435.6592,550.442735 11431.3325,546.082519 11425.9952,546.082519 L11418.2371,546.082519 C11415.1237,546.082519 11412.5998,543.539059 11412.5998,540.401544 C11412.5998,537.264028 11415.1237,534.720569 11418.2371,534.720569 L11425.9952,534.720569 C11427.4903,534.720569 11428.9242,535.319098 11429.9814,536.384488 C11431.0386,537.449877 11431.6325,538.894855 11431.6325,540.401544 C11431.6325,541.522085 11432.5339,542.430463 11433.6459,542.430463 C11434.7578,542.430463 11435.6592,541.522085 11435.6592,540.401544 C11435.6592,535.022945 11431.3325,530.662729 11425.9952,530.662729 L11424.1161,530.662729 L11424.1161,523.580447 C11424.1161,522.459905 11423.2147,521.551527 11422.1027,521.551527 Z M11493.6621,532.753632 C11528.609,532.753632 11562.3813,542.6464 11562.3813,551.084349 C11562.3813,559.522298 11534.1888,569.415066 11493.9557,569.415066 C11481.9152,569.415066 11470.1683,568.542174 11459.8898,566.796392 C11462.8265,561.26808 11464.5885,554.575914 11464.5885,547.592784 C11464.5885,543.228327 11463.7075,538.572907 11462.5328,534.790378 C11471.9303,533.626523 11482.7962,532.753632 11493.6621,532.753632 Z M11557.6826,490.563887 C11557.9653,490.844074 11558.7928,492.473311 11559.6404,494.931965 L11559.7383,495.219307 L11559.7383,542.355436 C11548.5787,534.208451 11522.7356,528.971103 11493.6621,528.971103 C11482.5025,528.971103 11470.7556,529.262067 11460.7708,531.007849 C11454.6686,517.476503 11441.3784,507.933343 11425.7365,507.17019 L11425.2365,507.148821 L11425.2365,496.092198 C11425.8238,494.346415 11427.5859,491.727742 11428.7606,490.563887 C11497.4798,449.537996 11557.3889,490.272923 11557.6826,490.563887 Z M11500.9615,440.530283 L11598.9475,477.679127 C11600.7727,478.371106 11601.6913,480.411686 11600.9994,482.236889 C11600.6426,483.177954 11599.9015,483.922284 11598.962,484.283214 L11564.437,497.547017 C11563.7272,491.629844 11562.3567,487.750327 11560.3256,485.908466 C11557.279,483.145675 11497.4798,443.136794 11426.1175,485.908466 C11425.8238,485.908466 11425.8238,486.19943 11425.8238,486.19943 L11425.7589,486.264168 C11425.156,486.868694 11421.4051,490.739818 11421.1251,494.346415 L11421.1251,497.256053 L11387.7928,484.785106 C11385.9646,484.101101 11385.037,482.064551 11385.721,480.236344 C11386.0733,479.294687 11386.81,478.547642 11387.7467,478.182209 L11484.0445,440.611532 C11489.479,438.491238 11495.5069,438.462287 11500.9615,440.530283 Z" id="iconStudents"></path>
        </g>
    </g>
</svg>